<?xml version="1.0" standalone="no"?>
<!DOCTYPE svg PUBLIC "-//W3C//DTD SVG 20010904//EN"
 "http://www.w3.org/TR/2001/REC-SVG-20010904/DTD/svg10.dtd">
<svg version="1.0" xmlns="http://www.w3.org/2000/svg"
 width="500.000000pt" height="500.000000pt" viewBox="0 0 500.000000 500.000000"
 preserveAspectRatio="xMidYMid meet">

<g transform="translate(0.000000,500.000000) scale(0.100000,-0.100000)"
fill="#000000" stroke="none">
<path d="M858 4411 c-147 -47 -256 -162 -293 -309 -13 -51 -16 -105 -13 -281
l3 -217 39 -79 c63 -128 172 -218 288 -240 28 -5 39 -14 46 -33 66 -185 960
-2581 977 -2620 51 -113 183 -214 313 -241 83 -17 485 -14 555 4 114 30 205
92 264 181 25 38 174 426 527 1375 l491 1323 46 11 c134 34 258 152 306 287
15 46 18 85 18 283 -1 216 -2 234 -23 287 -53 133 -161 234 -289 269 -62 18
-109 19 -629 19 -523 0 -566 -1 -623 -19 -82 -26 -138 -60 -194 -120 -95 -102
-127 -211 -127 -441 0 -225 30 -332 119 -432 l42 -48 -97 -282 c-53 -156 -101
-294 -106 -308 -11 -28 -12 -25 -148 371 l-74 216 43 49 c91 102 120 208 120
434 0 230 -31 340 -126 441 -56 60 -112 94 -194 120 -57 18 -100 19 -632 18
-526 0 -577 -2 -629 -18z"/>
</g>
</svg>
