<?xml version="1.0" standalone="no"?>
<!DOCTYPE svg PUBLIC "-//W3C//DTD SVG 20010904//EN"
 "http://www.w3.org/TR/2001/REC-SVG-20010904/DTD/svg10.dtd">
<svg version="1.0" xmlns="http://www.w3.org/2000/svg"
 width="500.000000pt" height="500.000000pt" viewBox="0 0 500.000000 500.000000"
 preserveAspectRatio="xMidYMid meet">

<g transform="translate(0.000000,500.000000) scale(0.100000,-0.100000)"
fill="#000000" stroke="none">
<path d="M2327 4094 c-85 -19 -153 -45 -234 -90 -73 -40 -105 -77 -101 -115 2
-20 -10 -40 -54 -88 -70 -75 -131 -176 -163 -268 -13 -37 -28 -68 -32 -68 -4
1 -33 5 -64 9 -117 17 -234 -48 -285 -159 -55 -116 -13 -276 89 -340 19 -12
27 -26 27 -46 0 -15 11 -40 23 -55 22 -25 23 -31 12 -68 -7 -23 -20 -84 -30
-137 -16 -93 -18 -96 -53 -115 -59 -31 -159 -136 -187 -195 -67 -145 0 -300
153 -353 37 -13 37 -13 64 -122 16 -63 46 -145 70 -194 l43 -85 102 -3 c95 -2
102 -1 108 18 10 31 40 43 79 30 44 -14 60 -6 82 42 21 46 65 78 107 78 32 0
80 -43 109 -98 17 -32 19 -33 67 -26 45 6 50 4 65 -19 20 -29 56 -43 56 -21 0
25 -29 73 -51 85 -13 6 -38 8 -60 5 -35 -6 -40 -4 -53 22 -21 40 -79 89 -114
97 -55 12 -138 -37 -162 -95 -11 -25 -15 -27 -56 -22 -37 4 -51 0 -76 -18
l-31 -23 -20 24 c-33 40 -76 140 -91 214 -8 38 -13 71 -11 73 2 3 43 8 92 14
48 5 135 20 193 34 58 14 126 27 151 29 51 3 101 26 202 94 l70 46 128 0 c103
0 130 -3 145 -16 11 -9 37 -26 59 -37 22 -10 72 -36 110 -57 62 -33 76 -36
118 -31 27 3 92 -1 145 -9 54 -8 134 -15 179 -15 l83 0 -6 -32 c-23 -125 -37
-174 -69 -239 -20 -41 -43 -82 -52 -91 -14 -16 -17 -15 -41 14 -23 28 -30 30
-73 26 -45 -5 -49 -3 -60 24 -26 63 -112 110 -173 94 -33 -8 -83 -52 -102 -87
-13 -26 -19 -29 -66 -27 -46 1 -55 -3 -80 -31 -15 -17 -28 -40 -28 -51 0 -31
33 -24 53 11 17 31 18 31 72 24 55 -6 55 -6 73 26 50 95 122 118 181 58 17
-17 34 -42 37 -55 9 -36 38 -48 81 -33 45 15 63 -1 70 -64 7 -57 -10 -132 -47
-217 -29 -67 -39 -120 -21 -120 13 0 59 74 82 132 12 31 44 77 78 113 120 129
205 292 235 455 16 81 26 100 54 100 20 0 106 46 141 76 76 63 99 190 53 286
-29 60 -101 131 -183 180 l-64 39 -26 126 c-23 110 -25 129 -13 152 8 14 14
32 14 39 0 7 24 36 53 65 112 110 117 269 11 386 -59 66 -131 94 -227 89 l-68
-3 -32 80 c-44 109 -94 181 -188 269 -50 48 -79 82 -79 96 0 11 -11 32 -25 46
-31 31 -148 86 -230 109 -87 23 -254 28 -338 9z m301 -49 c123 -29 242 -91
242 -126 0 -19 -3 -18 -30 10 -36 36 -160 85 -255 102 -80 14 -205 7 -290 -16
-78 -21 -221 -91 -240 -118 -12 -18 -15 -18 -15 -5 0 36 145 117 264 148 88
23 237 25 324 5z m368 -269 c64 -65 91 -101 123 -168 23 -46 41 -88 41 -91 0
-4 -10 -7 -23 -7 -17 0 -26 9 -35 34 -22 59 -93 159 -159 222 -45 43 -62 66
-57 78 3 9 11 16 17 16 5 0 47 -38 93 -84z m-326 30 c116 -49 126 -51 156 -31
l27 17 71 -74 c43 -44 86 -102 109 -146 40 -76 40 -88 -2 -48 -85 82 -303 175
-456 197 -193 26 -470 -72 -634 -226 -26 -25 -50 -42 -54 -39 -18 19 63 171
134 248 47 52 50 53 92 49 35 -4 55 1 105 26 99 50 153 61 277 58 93 -3 120
-8 175 -31z m-633 3 c8 -8 -2 -23 -33 -55 -50 -49 -112 -142 -145 -215 -20
-43 -49 -67 -49 -39 0 40 90 193 161 274 43 49 49 52 66 35z m559 -140 c140
-24 292 -92 397 -175 70 -56 69 -70 -1 -20 -66 48 -201 110 -282 130 -214 52
-455 19 -643 -88 -42 -24 -77 -42 -77 -40 0 8 121 84 187 118 143 71 291 98
419 75z m581 -221 c5 -7 40 -83 78 -168 37 -85 79 -180 92 -210 57 -127 58
-129 36 -152 -46 -45 -56 -28 -232 372 -28 63 -51 120 -51 126 0 34 57 57 77
32z m-1335 -15 c10 -9 18 -22 18 -28 0 -12 -71 -170 -173 -388 -31 -64 -64
-120 -73 -124 -22 -8 -48 9 -52 34 -3 17 91 238 191 452 34 73 55 85 89 54z
m1586 -23 c23 -13 50 -35 59 -49 l16 -26 -24 22 c-46 42 -117 66 -175 59 -60
-7 -83 9 -32 22 45 11 105 1 156 -28z m-1720 -2 c3 -14 -2 -15 -39 -7 -66 15
-134 -6 -193 -60 -25 -23 -27 -24 -17 -4 13 25 55 57 103 78 46 20 142 16 146
-7z m480 -177 c40 -20 57 -39 112 -118 16 -23 51 -54 77 -70 41 -24 59 -28
118 -28 102 1 155 33 238 146 73 101 245 103 356 3 65 -59 110 -139 160 -289
35 -103 38 -123 27 -140 -20 -31 -103 -83 -158 -100 l-51 -15 -33 29 c-63 56
-183 49 -249 -14 -57 -53 -45 -112 28 -146 79 -35 161 -19 222 45 26 26 57 46
85 55 51 14 124 54 157 84 l22 20 5 -24 c11 -47 26 -155 26 -186 0 -32 -1 -33
-45 -33 -51 0 -231 -26 -289 -41 -37 -10 -40 -9 -62 18 -22 27 -24 28 -138 31
-64 2 -116 7 -116 11 0 4 11 13 25 19 34 16 34 56 -1 79 -30 19 -109 22 -142
4 -36 -19 -39 -52 -6 -78 l29 -23 -105 1 c-65 0 -97 3 -85 9 35 13 48 36 35
59 -16 30 -42 41 -100 41 -41 0 -56 -5 -76 -25 -20 -20 -23 -29 -14 -44 5 -11
19 -23 30 -26 46 -15 14 -25 -78 -25 -102 0 -111 -3 -145 -52 -11 -15 -20 -16
-77 -8 -36 5 -125 10 -199 10 l-134 0 7 68 c22 222 123 517 222 653 84 115
213 155 322 100z m702 -599 c0 -4 -16 -12 -35 -18 -44 -14 -45 -8 -2 11 39 17
37 17 37 7z m58 1 c-10 -2 -26 -2 -35 0 -10 3 -2 5 17 5 19 0 27 -2 18 -5z
m-794 -221 c6 -10 -53 -36 -62 -27 -8 8 26 35 44 35 7 0 15 -4 18 -8z m172
-37 c7 -22 26 -50 41 -62 25 -20 39 -23 124 -23 93 0 98 1 128 29 17 16 34 43
37 60 6 30 8 31 58 31 48 0 49 -1 26 -13 -18 -9 -26 -22 -28 -47 -3 -30 -9
-37 -42 -52 -25 -10 -44 -26 -50 -42 -9 -26 -11 -26 -118 -26 l-108 0 -15 33
c-9 21 -28 38 -56 52 -31 14 -43 26 -43 40 0 26 -18 45 -43 45 -10 0 -16 4
-12 10 3 5 24 8 46 7 38 -3 42 -6 55 -42z m71 39 c-3 -3 -12 -4 -19 -1 -8 3
-5 6 6 6 11 1 17 -2 13 -5z m503 -19 c0 -19 -10 -19 -46 0 l-29 15 38 0 c26 0
37 -4 37 -15z m145 -34 c-111 -32 -264 -85 -310 -109 -16 -8 -36 -24 -44 -34
-15 -22 -35 -11 -26 14 9 23 233 109 370 142 106 25 113 16 10 -13z m-1081 -6
c103 -16 277 -58 334 -82 22 -9 32 -20 32 -35 l0 -22 -19 21 c-30 32 -241 90
-426 118 -49 7 -74 13 -55 14 19 0 80 -6 134 -14z m269 8 c-7 -2 -21 -2 -30 0
-10 3 -4 5 12 5 17 0 24 -2 18 -5z m575 0 c-10 -2 -28 -2 -40 0 -13 2 -5 4 17
4 22 1 32 -1 23 -4z"/>
<path d="M2393 3789 c-54 -9 -167 -48 -160 -55 2 -2 22 2 44 10 64 23 186 39
257 34 37 -2 61 -1 54 3 -23 13 -142 18 -195 8z"/>
<path d="M2820 3711 c8 -5 26 -12 40 -16 22 -7 23 -6 11 9 -7 9 -25 16 -40 16
-19 -1 -22 -3 -11 -9z"/>
<path d="M2049 3664 l-34 -36 63 32 c34 18 62 34 62 36 0 2 -13 4 -28 4 -19 0
-39 -11 -63 -36z"/>
<path d="M2131 3029 l27 -21 -24 -36 c-30 -44 -32 -104 -4 -150 55 -91 170
-44 170 69 0 39 3 49 17 49 52 0 -106 94 -177 105 l-35 6 26 -22z m139 -108
c13 -26 13 -33 -4 -56 -12 -16 -16 -17 -30 -6 -19 16 -21 52 -4 69 17 17 26
15 38 -7z"/>
<path d="M2753 3015 c-74 -37 -130 -85 -100 -85 12 0 17 -9 17 -31 0 -78 66
-142 126 -122 16 5 40 25 52 44 29 42 26 111 -6 156 l-21 30 22 21 21 22 -20
0 c-12 0 -52 -16 -91 -35z m-2 -99 c8 -17 8 -29 -1 -45 -22 -42 -62 -1 -42 43
14 32 29 33 43 2z"/>
<path d="M2389 2802 c-49 -26 -54 -31 -54 -62 0 -47 43 -72 139 -78 121 -8
215 48 179 107 -5 9 -29 26 -53 39 -64 32 -142 30 -211 -6z m151 -22 c20 -5
45 -16 55 -24 19 -14 18 -15 -17 -30 -43 -19 -121 -21 -167 -5 -37 13 -39 24
-9 40 52 28 88 33 138 19z"/>
<path d="M2303 2637 c33 -28 118 -60 144 -55 21 4 -94 63 -142 72 l-30 6 28
-23z"/>
<path d="M842 1534 c-12 -8 -22 -25 -22 -38 0 -20 90 -416 120 -526 6 -22 20
-46 33 -55 27 -19 155 -21 181 -2 10 7 27 50 41 102 l23 90 1 -80 c1 -44 5
-85 9 -91 15 -22 52 -34 110 -34 84 0 101 16 103 98 2 79 19 82 19 2 0 -95 8
-99 182 -99 149 0 188 9 188 45 0 11 9 7 29 -15 l29 -30 240 2 c221 2 242 4
261 21 21 19 22 19 35 0 11 -14 30 -19 88 -22 99 -5 118 9 128 99 l7 64 2 -61
c2 -105 -18 -99 336 -101 l307 -2 23 23 23 23 21 -20 c16 -16 39 -22 108 -28
48 -4 111 -14 138 -23 28 -9 60 -16 73 -16 30 0 62 34 62 66 l0 26 31 -26 c26
-22 40 -26 95 -26 37 0 96 -9 138 -22 83 -24 117 -20 134 17 8 18 12 114 11
315 -1 370 16 340 -192 340 -134 0 -156 -2 -185 -20 -32 -20 -32 -20 -52 0
-18 18 -34 20 -177 20 l-156 0 -59 -58 -58 -59 0 -155 0 -156 -57 -4 c-32 -3
-86 -3 -120 0 l-62 5 -3 194 c-3 191 -3 195 -27 214 -21 17 -42 19 -247 19
l-224 0 -39 -35 c-21 -19 -42 -35 -46 -35 -4 0 -25 16 -46 35 l-39 35 -235 0
c-197 -1 -237 -3 -250 -16 -8 -9 -15 -22 -15 -31 0 -10 -10 -5 -29 16 l-29 31
-229 0 c-193 0 -232 -2 -251 -16 -21 -15 -25 -15 -41 0 -13 11 -37 16 -87 16
-88 0 -110 -14 -120 -75 -9 -62 -20 -64 -28 -5 -5 34 -13 54 -29 65 -29 21
-145 20 -175 -1z m618 -214 c0 -5 -4 -10 -10 -10 -5 0 -10 5 -10 10 0 6 5 10
10 10 6 0 10 -4 10 -10z m800 -95 c0 -63 -4 -105 -10 -105 -6 0 -10 42 -10
105 0 63 4 105 10 105 6 0 10 -42 10 -105z"/>
</g>
</svg>
